<svg width="1137" height="554" viewBox="0 0 1137 554" fill="none" xmlns="http://www.w3.org/2000/svg">
<path d="M144.264 545.611L142.313 545.172C164.069 448.421 218.743 360.563 296.264 297.78C354.873 250.389 424.579 218.693 498.818 205.678C573.058 192.662 649.389 198.755 720.624 223.383C791.858 248.011 855.654 290.363 906.002 346.452C956.35 402.541 991.596 470.521 1008.42 543.991L1006.47 544.435C960.416 342.226 783.195 201 575.5 201C370.526 201 189.166 345.93 144.264 545.611Z" fill="#3F3D56"/>
<path d="M899.633 309.218C929.631 309.218 953.948 284.9 953.948 254.903C953.948 224.905 929.631 200.588 899.633 200.588C869.636 200.588 845.318 224.905 845.318 254.903C845.318 284.9 869.636 309.218 899.633 309.218Z" fill="#FF6584"/>
<path d="M879 472.057H877V551.057H879V472.057Z" fill="#3F3D56"/>
<path d="M897.458 482.124C897.585 509.749 878.15 532.233 878.15 532.233C878.15 532.233 858.508 509.929 858.381 482.304C858.254 454.68 877.689 432.196 877.689 432.196C877.689 432.196 897.33 454.5 897.458 482.124Z" fill="#0BC91F"/>
<path opacity="0.1" d="M897.458 482.124C897.585 509.749 878.15 532.233 878.15 532.233C878.15 532.233 858.508 509.929 858.381 482.304C858.254 454.68 877.689 432.196 877.689 432.196C877.689 432.196 897.33 454.5 897.458 482.124Z" fill="black"/>
<path opacity="0.4" d="M534.248 333.496C551.506 333.496 565.496 319.506 565.496 302.248C565.496 284.99 551.506 271 534.248 271C516.99 271 503 284.99 503 302.248C503 319.506 516.99 333.496 534.248 333.496Z" fill="#0BC91F"/>
<path opacity="0.4" d="M462.92 360.84C475.026 360.84 484.84 351.026 484.84 338.92C484.84 326.814 475.026 317 462.92 317C450.814 317 441 326.814 441 338.92C441 351.026 450.814 360.84 462.92 360.84Z" fill="#0BC91F"/>
<path opacity="0.4" d="M744.92 265.84C757.026 265.84 766.84 256.026 766.84 243.92C766.84 231.814 757.026 222 744.92 222C732.814 222 723 231.814 723 243.92C723 256.026 732.814 265.84 744.92 265.84Z" fill="#0BC91F"/>
<path opacity="0.4" d="M221.19 395.587C233.296 395.587 243.11 385.773 243.11 373.666C243.11 361.56 233.296 351.746 221.19 351.746C209.084 351.746 199.27 361.56 199.27 373.666C199.27 385.773 209.084 395.587 221.19 395.587Z" fill="#0BC91F"/>
<path d="M330.248 303.496C347.506 303.496 361.496 289.506 361.496 272.248C361.496 254.99 347.506 241 330.248 241C312.99 241 299 254.99 299 272.248C299 289.506 312.99 303.496 330.248 303.496Z" fill="#FAD115"/>
<path d="M345.1 277.381C344.498 276.735 343.778 276.412 342.941 276.412C341.961 276.412 341.249 276.73 340.806 277.368C340.364 278.006 339.992 278.831 339.692 279.843C338.98 281.99 337.924 283.619 336.526 284.728C335.126 285.836 333.414 286.391 331.39 286.391C330.557 286.391 329.772 286.287 329.033 286.092L335.917 260.253C336.018 260.321 336.12 260.387 336.217 260.461C337.458 261.404 338.538 262.828 339.455 264.73C340.008 265.883 340.511 266.695 340.961 267.166C341.411 267.638 342.088 267.873 342.988 267.873C343.795 267.873 344.483 267.533 345.053 266.852C345.622 266.171 345.907 265.385 345.907 264.494C345.907 262.871 345.322 261.147 344.152 259.322C342.981 257.498 341.297 255.966 339.099 254.725C338.611 254.45 338.104 254.21 337.585 253.996L338.932 248.939C339.152 248.114 338.654 247.269 337.82 247.051C336.987 246.834 336.13 247.327 335.911 248.152L334.586 253.123C333.626 252.952 332.624 252.866 331.58 252.866C329.272 252.866 327.097 253.32 325.057 254.228C323.017 255.137 321.238 256.459 319.72 258.197C318.203 259.934 317.036 262.025 316.222 264.469C315.407 266.914 315 269.681 315 272.772C315 274.675 315.162 276.473 315.486 278.167C315.81 279.861 316.296 281.454 316.945 282.947C317.593 284.44 318.375 285.789 319.293 286.994C320.321 288.321 321.447 289.39 322.673 290.202C323.234 290.574 323.827 290.895 324.447 291.177L323.413 295.061C323.193 295.886 323.691 296.731 324.525 296.949C324.658 296.983 324.792 297 324.924 297C325.616 297 326.249 296.541 326.433 295.848L327.422 292.139C328.751 292.422 330.195 292.572 331.769 292.572C334.188 292.572 336.307 292.144 338.126 291.288C339.944 290.433 341.439 289.32 342.608 287.949C343.778 286.578 344.637 285.182 345.182 283.759C345.727 282.335 346 281.013 346 279.791C346 278.83 345.7 278.027 345.1 277.381ZM323.408 280.613C322.649 278.631 322.269 276.148 322.269 273.162C322.269 268.692 323.126 265.243 324.843 262.816C326.558 260.389 328.733 259.047 331.627 259.047C332.098 259.047 332.548 259.08 332.981 259.143L326.179 284.675C324.965 283.72 324.106 282.435 323.408 280.613Z" fill="black"/>
<path d="M588.5 253C618.047 253 642 229.047 642 199.5C642 169.953 618.047 146 588.5 146C558.953 146 535 169.953 535 199.5C535 229.047 558.953 253 588.5 253Z" fill="black"/>
<path d="M863.248 330.496C880.506 330.496 894.496 316.506 894.496 299.248C894.496 281.99 880.506 268 863.248 268C845.99 268 832 281.99 832 299.248C832 316.506 845.99 330.496 863.248 330.496Z" fill="#0BC91F"/>
<path d="M56.6306 542.272C58.3246 548.534 64.1267 552.412 64.1267 552.412C64.1267 552.412 67.1824 546.138 65.4884 539.876C63.7945 533.614 57.9923 529.736 57.9923 529.736C57.9923 529.736 54.9366 536.011 56.6306 542.272Z" fill="#3F3D56"/>
<path d="M59.1197 540.927C63.7679 545.452 64.3357 552.407 64.3357 552.407C64.3357 552.407 57.3672 552.027 52.719 547.502C48.0708 542.977 47.503 536.021 47.503 536.021C47.503 536.021 54.4715 536.402 59.1197 540.927Z" fill="#0BC91F"/>
<path d="M668.631 542.272C670.325 548.534 676.127 552.412 676.127 552.412C676.127 552.412 679.182 546.138 677.488 539.876C675.795 533.614 669.992 529.736 669.992 529.736C669.992 529.736 666.937 536.011 668.631 542.272Z" fill="#3F3D56"/>
<path d="M671.12 540.927C675.768 545.452 676.336 552.407 676.336 552.407C676.336 552.407 669.367 552.027 664.719 547.502C660.071 542.977 659.503 536.021 659.503 536.021C659.503 536.021 666.471 536.402 671.12 540.927Z" fill="#0BC91F"/>
<path d="M68.137 495.203L64 488.308L102.614 455.21H201.908V464.863L166.052 503.478L124.679 511.752L68.137 495.203Z" fill="#3F3D56"/>
<path d="M219 474.633V453.056H206V459.86L201.908 455.21L168.81 488.308L163.293 493.824L156.398 521.406L168.81 551.745H232.247V489.687L219 474.633Z" fill="#CCCCCC"/>
<path d="M168.81 488.308H64V551.745H168.81V488.308Z" fill="#F2F2F2"/>
<path d="M154.329 508.304H132.264V527.611H154.329V508.304Z" fill="#3F3D56"/>
<path d="M123.3 507.615H103.993V551.745H123.3V507.615Z" fill="#CCCCCC"/>
<path d="M81.928 514.51V507.615H73.654V514.51H81.238H81.928Z" fill="#3F3D56"/>
<path d="M81.238 520.026H73.654V526.922H81.928V520.026H81.238Z" fill="#3F3D56"/>
<path d="M95.7187 507.615H87.4443V514.51H95.7187V507.615Z" fill="#3F3D56"/>
<path d="M95.7187 520.026H87.4443V526.922H95.7187V520.026Z" fill="#3F3D56"/>
<path d="M198.46 515.2V508.304H190.185V515.2H197.77H198.46Z" fill="#3F3D56"/>
<path d="M197.77 520.716H190.185V527.611H198.46V520.716H197.77Z" fill="#3F3D56"/>
<path d="M212.251 508.304H203.976V515.2H212.251V508.304Z" fill="#3F3D56"/>
<path d="M212.251 520.716H203.976V527.611H212.251V520.716Z" fill="#3F3D56"/>
<path d="M467.137 495.203L463 488.308L501.614 455.21H600.908V464.863L565.052 503.478L523.679 511.752L467.137 495.203Z" fill="#3F3D56"/>
<path d="M618 474.633V453.056H605V459.86L600.908 455.21L567.81 488.308L562.293 493.824L555.398 521.406L567.81 551.745H631.247V489.687L618 474.633Z" fill="#CCCCCC"/>
<path d="M567.81 488.308H463V551.745H567.81V488.308Z" fill="#F2F2F2"/>
<path d="M553.329 508.304H531.264V527.611H553.329V508.304Z" fill="#3F3D56"/>
<path d="M522.3 507.615H502.993V551.745H522.3V507.615Z" fill="#CCCCCC"/>
<path d="M480.928 514.51V507.615H472.654V514.51H480.238H480.928Z" fill="#3F3D56"/>
<path d="M480.238 520.026H472.654V526.922H480.928V520.026H480.238Z" fill="#3F3D56"/>
<path d="M494.719 507.615H486.444V514.51H494.719V507.615Z" fill="#3F3D56"/>
<path d="M494.719 520.026H486.444V526.922H494.719V520.026Z" fill="#3F3D56"/>
<path d="M597.46 515.2V508.304H589.185V515.2H596.77H597.46Z" fill="#3F3D56"/>
<path d="M596.77 520.716H589.185V527.611H597.46V520.716H596.77Z" fill="#3F3D56"/>
<path d="M611.251 508.304H602.976V515.2H611.251V508.304Z" fill="#3F3D56"/>
<path d="M611.251 520.716H602.976V527.611H611.251V520.716Z" fill="#3F3D56"/>
<path d="M280.515 379.361L273.62 373.844L312.234 339.367H410.148V369.707L346.711 412.459L280.515 379.361Z" fill="#3F3D56"/>
<path d="M428 358.707V340.056H415V344.624L410.148 339.367L378.429 373.844L366.018 382.119L346.773 522.722L375.796 551.745H443.246V375.223L428 358.707Z" fill="#CCCCCC"/>
<path d="M378.429 373.844H273.62V551.745H378.429V373.844Z" fill="#F2F2F2"/>
<path d="M333.609 508.304H314.302V551.745H333.609V508.304Z" fill="#CCCCCC"/>
<path d="M293.616 520.716V513.821H285.342V520.716H292.927H293.616Z" fill="#3F3D56"/>
<path d="M292.927 526.232H285.342V533.128H293.616V526.232H292.927Z" fill="#3F3D56"/>
<path d="M307.407 513.821H299.132V520.716H307.407V513.821Z" fill="#3F3D56"/>
<path d="M307.407 526.232H299.132V533.128H307.407V526.232Z" fill="#3F3D56"/>
<path d="M350.158 520.716V513.821H341.884V520.716H349.469H350.158Z" fill="#3F3D56"/>
<path d="M349.469 526.232H341.884V533.128H350.158V526.232H349.469Z" fill="#3F3D56"/>
<path d="M363.949 513.821H355.675V520.716H363.949V513.821Z" fill="#3F3D56"/>
<path d="M363.949 526.232H355.675V533.128H363.949V526.232Z" fill="#3F3D56"/>
<path d="M408.079 382.808V375.913H399.805V382.808H407.39H408.079Z" fill="#3F3D56"/>
<path d="M407.39 388.325H399.805V395.22H408.079V388.325H407.39Z" fill="#3F3D56"/>
<path d="M421.87 375.913H413.596V382.808H421.87V375.913Z" fill="#3F3D56"/>
<path d="M421.87 388.325H413.596V395.22H421.87V388.325Z" fill="#3F3D56"/>
<path d="M408.079 421.423V414.527H399.805V421.423H407.39H408.079Z" fill="#3F3D56"/>
<path d="M407.39 426.939H399.805V433.834H408.079V426.939H407.39Z" fill="#3F3D56"/>
<path d="M421.87 414.527H413.596V421.423H421.87V414.527Z" fill="#3F3D56"/>
<path d="M421.87 426.939H413.596V433.834H421.87V426.939Z" fill="#3F3D56"/>
<path d="M408.079 460.037V453.141H399.805V460.037H407.39H408.079Z" fill="#3F3D56"/>
<path d="M407.39 465.553H399.805V472.448H408.079V465.553H407.39Z" fill="#3F3D56"/>
<path d="M421.87 453.141H413.596V460.037H421.87V453.141Z" fill="#3F3D56"/>
<path d="M421.87 465.553H413.596V472.448H421.87V465.553Z" fill="#3F3D56"/>
<path d="M408.079 498.651V491.755H399.805V498.651H407.39H408.079Z" fill="#3F3D56"/>
<path d="M407.39 504.167H399.805V511.062H408.079V504.167H407.39Z" fill="#3F3D56"/>
<path d="M421.87 491.755H413.596V498.651H421.87V491.755Z" fill="#3F3D56"/>
<path d="M421.87 504.167H413.596V511.062H421.87V504.167Z" fill="#3F3D56"/>
<path d="M365.328 382.808H285.342V399.357H365.328V382.808Z" fill="#3F3D56"/>
<path d="M365.328 415.906H285.342V432.455H365.328V415.906Z" fill="#3F3D56"/>
<path d="M365.328 449.004H285.342V465.553H365.328V449.004Z" fill="#3F3D56"/>
<path d="M365.328 482.102H285.342V498.651H365.328V482.102Z" fill="#3F3D56"/>
<path d="M683.515 379.361L676.62 373.844L715.234 339.367H813.148V369.707L749.711 412.459L683.515 379.361Z" fill="#3F3D56"/>
<path d="M831 358.707V340.056H818V344.624L813.148 339.367L781.429 373.844L769.018 382.119L749.773 522.722L778.796 551.745H846.246V375.223L831 358.707Z" fill="#CCCCCC"/>
<path d="M781.429 373.844H676.62V551.745H781.429V373.844Z" fill="#F2F2F2"/>
<path d="M736.609 508.304H717.302V551.745H736.609V508.304Z" fill="#CCCCCC"/>
<path d="M696.616 520.716V513.821H688.342V520.716H695.927H696.616Z" fill="#3F3D56"/>
<path d="M695.927 526.232H688.342V533.128H696.616V526.232H695.927Z" fill="#3F3D56"/>
<path d="M710.407 513.821H702.132V520.716H710.407V513.821Z" fill="#3F3D56"/>
<path d="M710.407 526.232H702.132V533.128H710.407V526.232Z" fill="#3F3D56"/>
<path d="M753.158 520.716V513.821H744.884V520.716H752.469H753.158Z" fill="#3F3D56"/>
<path d="M752.469 526.232H744.884V533.128H753.158V526.232H752.469Z" fill="#3F3D56"/>
<path d="M766.949 513.821H758.675V520.716H766.949V513.821Z" fill="#3F3D56"/>
<path d="M766.949 526.232H758.675V533.128H766.949V526.232Z" fill="#3F3D56"/>
<path d="M811.079 382.808V375.913H802.805V382.808H810.39H811.079Z" fill="#3F3D56"/>
<path d="M810.39 388.325H802.805V395.22H811.079V388.325H810.39Z" fill="#3F3D56"/>
<path d="M824.87 375.913H816.596V382.808H824.87V375.913Z" fill="#3F3D56"/>
<path d="M824.87 388.325H816.596V395.22H824.87V388.325Z" fill="#3F3D56"/>
<path d="M811.079 421.423V414.527H802.805V421.423H810.39H811.079Z" fill="#3F3D56"/>
<path d="M810.39 426.939H802.805V433.834H811.079V426.939H810.39Z" fill="#3F3D56"/>
<path d="M824.87 414.527H816.596V421.423H824.87V414.527Z" fill="#3F3D56"/>
<path d="M824.87 426.939H816.596V433.834H824.87V426.939Z" fill="#3F3D56"/>
<path d="M811.079 460.037V453.141H802.805V460.037H810.39H811.079Z" fill="#3F3D56"/>
<path d="M810.39 465.553H802.805V472.448H811.079V465.553H810.39Z" fill="#3F3D56"/>
<path d="M824.87 453.141H816.596V460.037H824.87V453.141Z" fill="#3F3D56"/>
<path d="M824.87 465.553H816.596V472.448H824.87V465.553Z" fill="#3F3D56"/>
<path d="M811.079 498.651V491.755H802.805V498.651H810.39H811.079Z" fill="#3F3D56"/>
<path d="M810.39 504.167H802.805V511.062H811.079V504.167H810.39Z" fill="#3F3D56"/>
<path d="M824.87 491.755H816.596V498.651H824.87V491.755Z" fill="#3F3D56"/>
<path d="M824.87 504.167H816.596V511.062H824.87V504.167Z" fill="#3F3D56"/>
<path d="M768.328 382.808H688.342V399.357H768.328V382.808Z" fill="#3F3D56"/>
<path d="M768.328 415.906H688.342V432.455H768.328V415.906Z" fill="#3F3D56"/>
<path d="M768.328 449.004H688.342V465.553H768.328V449.004Z" fill="#3F3D56"/>
<path d="M768.328 482.102H688.342V498.651H768.328V482.102Z" fill="#3F3D56"/>
<path d="M904.515 379.361L897.62 373.844L936.234 339.367H1034.15V369.707L970.711 412.459L904.515 379.361Z" fill="#3F3D56"/>
<path d="M1052 358.707V340.056H1039V344.624L1034.15 339.367L1002.43 373.844L990.018 382.119L970.773 522.722L999.796 551.745H1067.25V375.223L1052 358.707Z" fill="#CCCCCC"/>
<path d="M1002.43 373.844H897.62V551.745H1002.43V373.844Z" fill="#F2F2F2"/>
<path d="M957.609 508.304H938.302V551.745H957.609V508.304Z" fill="#CCCCCC"/>
<path d="M917.616 520.716V513.821H909.342V520.716H916.927H917.616Z" fill="#3F3D56"/>
<path d="M916.927 526.232H909.342V533.128H917.616V526.232H916.927Z" fill="#3F3D56"/>
<path d="M931.407 513.821H923.132V520.716H931.407V513.821Z" fill="#3F3D56"/>
<path d="M931.407 526.232H923.132V533.128H931.407V526.232Z" fill="#3F3D56"/>
<path d="M974.158 520.716V513.821H965.884V520.716H973.469H974.158Z" fill="#3F3D56"/>
<path d="M973.469 526.232H965.884V533.128H974.158V526.232H973.469Z" fill="#3F3D56"/>
<path d="M987.949 513.821H979.675V520.716H987.949V513.821Z" fill="#3F3D56"/>
<path d="M987.949 526.232H979.675V533.128H987.949V526.232Z" fill="#3F3D56"/>
<path d="M1032.08 382.808V375.913H1023.8V382.808H1031.39H1032.08Z" fill="#3F3D56"/>
<path d="M1031.39 388.325H1023.8V395.22H1032.08V388.325H1031.39Z" fill="#3F3D56"/>
<path d="M1045.87 375.913H1037.6V382.808H1045.87V375.913Z" fill="#3F3D56"/>
<path d="M1045.87 388.325H1037.6V395.22H1045.87V388.325Z" fill="#3F3D56"/>
<path d="M1032.08 421.423V414.527H1023.8V421.423H1031.39H1032.08Z" fill="#3F3D56"/>
<path d="M1031.39 426.939H1023.8V433.834H1032.08V426.939H1031.39Z" fill="#3F3D56"/>
<path d="M1045.87 414.527H1037.6V421.423H1045.87V414.527Z" fill="#3F3D56"/>
<path d="M1045.87 426.939H1037.6V433.834H1045.87V426.939Z" fill="#3F3D56"/>
<path d="M1032.08 460.037V453.141H1023.8V460.037H1031.39H1032.08Z" fill="#3F3D56"/>
<path d="M1031.39 465.553H1023.8V472.448H1032.08V465.553H1031.39Z" fill="#3F3D56"/>
<path d="M1045.87 453.141H1037.6V460.037H1045.87V453.141Z" fill="#3F3D56"/>
<path d="M1045.87 465.553H1037.6V472.448H1045.87V465.553Z" fill="#3F3D56"/>
<path d="M1032.08 498.651V491.755H1023.8V498.651H1031.39H1032.08Z" fill="#3F3D56"/>
<path d="M1031.39 504.167H1023.8V511.062H1032.08V504.167H1031.39Z" fill="#3F3D56"/>
<path d="M1045.87 491.755H1037.6V498.651H1045.87V491.755Z" fill="#3F3D56"/>
<path d="M1045.87 504.167H1037.6V511.062H1045.87V504.167Z" fill="#3F3D56"/>
<path d="M989.328 382.808H909.342V399.357H989.328V382.808Z" fill="#3F3D56"/>
<path d="M989.328 415.906H909.342V432.455H989.328V415.906Z" fill="#3F3D56"/>
<path d="M989.328 449.004H909.342V465.553H989.328V449.004Z" fill="#3F3D56"/>
<path d="M989.328 482.102H909.342V498.651H989.328V482.102Z" fill="#3F3D56"/>
<path d="M1137 551.057H0V553.057H1137V551.057Z" fill="#3F3D56"/>
<path d="M254 472.057H252V551.057H254V472.057Z" fill="#3F3D56"/>
<path d="M272.458 482.124C272.585 509.749 253.15 532.233 253.15 532.233C253.15 532.233 233.508 509.929 233.381 482.304C233.254 454.68 252.689 432.196 252.689 432.196C252.689 432.196 272.33 454.5 272.458 482.124Z" fill="#0BC91F"/>
<path d="M454 472.057H452V551.057H454V472.057Z" fill="#3F3D56"/>
<path d="M472.458 482.124C472.585 509.749 453.15 532.233 453.15 532.233C453.15 532.233 433.508 509.929 433.381 482.304C433.254 454.68 452.689 432.196 452.689 432.196C452.689 432.196 472.33 454.5 472.458 482.124Z" fill="#0BC91F"/>
<path d="M853 472.057H851V551.057H853V472.057Z" fill="#3F3D56"/>
<path d="M871.458 482.124C871.585 509.749 852.15 532.233 852.15 532.233C852.15 532.233 832.508 509.929 832.381 482.304C832.254 454.68 851.689 432.196 851.689 432.196C851.689 432.196 871.33 454.5 871.458 482.124Z" fill="#0BC91F"/>
<path d="M630 44C630 68.3005 586 137 586 137C586 137 542 68.3005 542 44C542 32.3305 546.636 21.1389 554.887 12.8873C563.139 4.6357 574.33 0 586 0C597.67 0 608.861 4.6357 617.113 12.8873C625.364 21.1389 630 32.3305 630 44Z" fill="#0BC91F"/>
<path d="M586 69C599.807 69 611 57.8071 611 44C611 30.1929 599.807 19 586 19C572.193 19 561 30.1929 561 44C561 57.8071 572.193 69 586 69Z" fill="#F2F2F2"/>
<path d="M881.514 303.06H876.054V297.931H881.514C882.335 297.931 883 297.282 883 296.48C883 295.678 882.335 295.029 881.514 295.029H876.054V287.913C876.054 286.874 875.844 286.112 875.43 285.647C875.037 285.206 874.519 285 873.803 285C873.119 285 872.621 285.204 872.235 285.643C871.826 286.108 871.618 286.872 871.618 287.913V295.029H861.347L856.98 288.571C856.606 287.995 856.255 287.455 855.914 286.937C855.606 286.47 855.307 286.09 855.024 285.807C854.773 285.555 854.488 285.361 854.154 285.212C853.838 285.071 853.438 285 852.964 285C852.359 285 851.81 285.162 851.285 285.495C850.765 285.824 850.405 286.231 850.186 286.738C849.993 287.221 849.891 287.96 849.891 288.915V295.029H844.485C843.665 295.029 843 295.679 843 296.481C843 297.283 843.665 297.932 844.485 297.932H849.891V303.061H844.485C843.665 303.061 843 303.71 843 304.512C843 305.314 843.665 305.963 844.485 305.963H849.891V314.087C849.891 315.095 850.108 315.85 850.537 316.33C850.945 316.787 851.463 316.999 852.166 316.999C852.844 316.999 853.358 316.786 853.784 316.328C854.22 315.858 854.44 315.104 854.44 314.087V305.963H863.734L868.764 313.5C869.114 313.998 869.475 314.501 869.835 314.994C870.16 315.437 870.514 315.827 870.888 316.153C871.225 316.447 871.586 316.663 871.962 316.795C872.348 316.931 872.8 317 873.301 317C874.661 317 876.054 316.593 876.054 313.575V305.963H881.514C882.335 305.963 883 305.313 883 304.511C883 303.71 882.335 303.06 881.514 303.06ZM871.618 297.931V303.06H866.779L863.311 297.931H871.618ZM854.44 292.039L856.436 295.029H854.44V292.039ZM854.44 303.06V297.931H858.374L861.797 303.06H854.44ZM871.618 310.218L868.742 305.963H871.618V310.218Z" fill="white"/>
<g clip-path="url(#clip0)">
<path d="M221 391C230.389 391 238 383.389 238 374C238 364.611 230.389 357 221 357C211.611 357 204 364.611 204 374C204 383.389 211.611 391 221 391Z" fill="#F0F0F0"/>
<path d="M208.979 386.021C202.34 379.382 202.34 368.618 208.979 361.979C208.979 361.98 218.783 374 218.783 374L208.979 386.021Z" fill="black"/>
<path d="M218.783 374L206.255 365.534C205.866 366.209 205.524 366.914 205.229 367.643L211.572 374L205.23 380.357C205.524 381.086 205.866 381.79 206.254 382.465L218.783 374Z" fill="#FFDA44"/>
<path d="M237.856 371.783H218.782L208.979 361.979C207.923 363.036 207.005 364.231 206.255 365.534L214.704 374L206.254 382.465C207.004 383.769 207.922 384.964 208.979 386.021L218.782 376.217H237.856C237.951 375.492 238 374.752 238 374C238 373.248 237.951 372.508 237.856 371.783Z" fill="#6DA544"/>
<path d="M210.65 387.486C213.516 389.689 217.105 391 221 391C228.854 391 235.464 385.673 237.414 378.435H219.701L210.65 387.486Z" fill="#0052B4"/>
<path d="M237.414 369.565C235.464 362.327 228.854 357 221 357C217.105 357 213.516 358.311 210.65 360.514L219.701 369.565H237.414Z" fill="#D80027"/>
</g>
<path d="M534 330C548.912 330 561 318.136 561 303.5C561 288.864 548.912 277 534 277C519.088 277 507 288.864 507 303.5C507 318.136 519.088 330 534 330Z" fill="#F0F0F0"/>
<path d="M534 277C522.391 277 512.494 284.191 508.679 294.283H559.321C555.506 284.191 545.609 277 534 277Z" fill="#D80027"/>
<path d="M534 330C545.609 330 555.506 322.809 559.321 312.717H508.679C512.494 322.809 522.391 330 534 330Z" fill="black"/>
<path d="M543.391 300.62H536.348C536.348 299.347 535.297 298.315 534 298.315C532.703 298.315 531.652 299.347 531.652 300.62H524.609C524.609 301.892 525.738 302.924 527.035 302.924H526.956C526.956 304.197 528.007 305.228 529.304 305.228C529.304 306.501 530.355 307.533 531.652 307.533H536.348C537.644 307.533 538.696 306.501 538.696 305.228C539.992 305.228 541.043 304.197 541.043 302.924H540.965C542.262 302.924 543.391 301.892 543.391 300.62Z" fill="#FF9811"/>
<path d="M618.439 190.198H615.182C614.07 190.198 613.221 189.622 612.811 188.632L607.725 174.734C607.242 173.413 606.001 172.703 604.603 172.533H604.603H604.603C600.844 172.074 595.956 170.855 594.178 170.855C591.988 170.855 590.64 171.528 587.439 171.528C584.238 171.528 582.553 167.491 581.374 166.313C580.195 165.136 574.466 167.659 571.097 167.659C567.727 167.659 564.021 169.845 564.021 172.705C564.021 175.564 560.82 177.415 557.282 180.947C553.744 184.479 558.377 192.973 560.988 195.58C563.6 198.187 567.053 198.776 571.097 197.094C575.14 195.412 576.572 196.169 578.51 198.103C580.447 200.038 580.531 202.813 582.89 205.168C585.249 207.523 584.069 216.269 584.069 220.138C584.069 224.007 587.271 228.884 589.798 231.408C592.325 233.931 592.662 233.09 596.537 231.408C600.412 229.726 603.444 221.652 606.982 218.12C610.52 214.587 609.846 209.373 609.846 206.345C609.846 203.318 616.417 197.431 619.786 194.067C623.156 190.703 618.439 190.198 618.439 190.198Z" fill="#0BC91F"/>
<defs>
<clipPath id="clip0">
<rect x="204" y="357" width="34" height="34" fill="white"/>
</clipPath>
</defs>
</svg>
