<?xml version="1.0" encoding="iso-8859-1"?>
<!-- Generator: Adobe Illustrator 19.0.0, SVG Export Plug-In . SVG Version: 6.00 Build 0)  -->
<svg version="1.1" id="Capa_1" xmlns="http://www.w3.org/2000/svg" xmlns:xlink="http://www.w3.org/1999/xlink" x="0px" y="0px"
	 viewBox="0 0 512.001 512.001" style="enable-background:new 0 0 512.001 512.001;" xml:space="preserve">
<g>
	<g>
		<path d="M497.711,417.787c-1.558-11.682-6.496-23.936-4.398-28.764c8.613-19.807,2.324-33.085-9.338-38.5
			c-23.461-10.892-33.969,14.526-41.535,22.092c-10.647,10.645-11.027,37.237-15.602,41.809c-6.987,6.988-7.042,14.443-5.858,19.468
			c2.178,9.234,9.722,16.778,15.721,22.869c6.681,6.785,12.991,13.194,22.276,13.231c10.628,0,21.428-9.309,28.602-17.157
			c2.8-3.055,2.593-7.8-0.463-10.599c-3.054-2.798-7.8-2.592-10.599,0.463c-0.323,0.352-0.654,0.704-1.005,1.054
			c-12.175,12.176-16.578,11.262-16.476,11.234c-3.618-0.014-8.504-5.64-14.098-11.233c-13.103-13.104-9.311-16.897-7.487-18.719
			c9.104-9.106,8.827-35.037,15.601-41.81c2.658-2.658,4.98-5.87,7.224-8.977c7.743-10.716,10.777-13.183,17.383-10.115
			c6.957,3.23,4.871,12.066,1.897,18.908c-4.787,11.007,1.557,23.762,3.283,36.727c0.547,4.106,4.32,6.994,8.428,6.446
			C495.371,425.667,498.258,421.895,497.711,417.787z"/>
	</g>
</g>
<g>
	<g>
		<g>
			<path d="M413.075,134.444c-0.031-0.086-0.059-0.162-0.087-0.239C413.021,134.297,413.051,134.378,413.075,134.444z"/>
			<path d="M412.988,134.206c-0.026-0.072-0.055-0.149-0.084-0.229C412.93,134.048,412.958,134.124,412.988,134.206z"/>
			<path d="M413.113,134.547c-0.01-0.027-0.023-0.062-0.038-0.103C413.087,134.477,413.101,134.514,413.113,134.547z"/>
			<path d="M412.904,133.976c0-0.001-0.001-0.002-0.001-0.003C412.903,133.974,412.904,133.975,412.904,133.976z"/>
			<path d="M413.124,134.577c-0.004-0.01-0.007-0.02-0.011-0.03C413.117,134.559,413.121,134.569,413.124,134.577z"/>
			<path d="M503.247,194.608c-4.344-12.308-21.38-14.734-24.751-15.095c-0.751-0.08,0.36-0.028-24.929-0.042
				c-7.62,0-10.054-5.47-10.443-6.509l-16.474-45.089c-1.422-3.892-5.73-5.895-9.622-4.472c-3.892,1.421-5.894,5.73-4.472,9.621
				c0.118,0.324,0.213,0.583,0.291,0.797c-0.004-0.011-0.008-0.021-0.012-0.032c0.021,0.057,0.044,0.122,0.068,0.186
				c-0.011-0.03-0.022-0.061-0.033-0.091c0.155,0.424,0.233,0.636,0.257,0.703c-0.001-0.003-0.002-0.005-0.003-0.008
				c1.304,3.568,5.262,14.401,15.927,43.588c2.816,7.523,10.927,16.31,24.517,16.31h23.697c4.813,0.602,11.089,3.019,11.833,5.127
				c3.076,8.715-82.552,72.395-82.552,107.181c0,22.324,4.67,58.366-19.02,82.056c-26.395,26.397-49.553,85.927-75.063,97.018
				c-14.967,6.506-23.351,11.553-28.121,11.172c-11.106-0.868-53.739-51.999-53.739-87.91c0-10.815,1.503-30.627,1.997-47.685
				c0.12-4.142-3.141-7.596-7.283-7.716c-4.145-0.116-7.596,3.141-7.715,7.282c-0.516,17.893-2.002,36.123-2.002,48.119
				c0,32.497,26.69,70.983,44.63,88.923c18.098,18.096,25.765,16.602,46.728,6.802c21.699-10.14,28.037-9.357,61.323-63.284
				c9.718-15.743,19.766-32.022,29.858-42.113c27.624-27.624,23.411-65.579,23.411-92.665c0-16.077,37.165-52.304,59.371-73.949
				C492.15,221.887,508.307,208.939,503.247,194.608z"/>
			<path d="M412.563,133.042C412.551,133.01,412.551,133.011,412.563,133.042L412.563,133.042z"/>
			<path d="M412.588,133.112c-0.01-0.029-0.019-0.053-0.025-0.069C412.568,133.057,412.577,133.08,412.588,133.112z"/>
			<path d="M412.686,133.379c-0.036-0.099-0.067-0.183-0.09-0.246C412.617,133.191,412.646,133.271,412.686,133.379z"/>
			<path d="M412.596,133.133c-0.003-0.008-0.005-0.014-0.008-0.021C412.591,133.118,412.593,133.125,412.596,133.133z"/>
			<path d="M412.835,133.787c-0.06-0.165-0.11-0.301-0.149-0.408C412.731,133.502,412.783,133.643,412.835,133.787z"/>
		</g>
	</g>
</g>
<g>
	<g>
		<path d="M416.312,99.583l-10.935-29.927c-4.58-12.534-16.62-19.695-28.077-21.063c-77.287-12.13-70.904-15.409-100.617-10.398
			c-8,1.349-16.274,2.745-28.623,2.745c-19.059,0-30.22-27.089-39.624-36.491c-13.411-13.414-54.579,7.786-81.434,7.786
			c-27.508,0-59.919,18.072-59.919,44.943c0,17.094-22.518,30.642-47.724,55.848c-29.731,29.731,4.631,96.362,27.456,119.187
			c21.919,21.92,50.644,26.363,83.072,12.853c27.556-11.483,34.97-5.884,46.722,5.868c12.816,12.817,13.961,33.93,32.448,52.416
			c2.911,2.911,6.681,10.197,8.11,28.377c0.325,4.126,3.927,7.217,8.068,6.893c4.13-0.324,7.216-3.937,6.891-8.066
			c-1.476-18.772-5.436-30.785-12.459-37.811c-16.28-16.279-16.748-36.716-32.449-52.416c-16.93-16.93-30.691-22.614-63.103-9.108
			c-26.735,11.139-49.172,7.906-66.691-9.612c-20.227-20.227-48.04-77.385-27.456-97.968c26.802-26.804,52.118-41.225,52.118-66.459
			c0-16.584,24.571-29.938,44.914-29.938c22.589,0,63.171-15.32,71.023-11.979c8.022,8.385,22.079,40.683,50.035,40.683
			c13.606,0,22.909-1.57,31.118-2.954c26.728-4.509,18.721-1.66,96.277,10.493c3.03,0.451,12.626,2.558,15.829,11.321l10.934,29.926
			c1.422,3.892,5.728,5.896,9.622,4.472C415.732,107.782,417.733,103.474,416.312,99.583z"/>
	</g>
</g>
<g>
</g>
<g>
</g>
<g>
</g>
<g>
</g>
<g>
</g>
<g>
</g>
<g>
</g>
<g>
</g>
<g>
</g>
<g>
</g>
<g>
</g>
<g>
</g>
<g>
</g>
<g>
</g>
<g>
</g>
</svg>
