<svg xmlns="http://www.w3.org/2000/svg" xmlns:xlink="http://www.w3.org/1999/xlink" width="75" height="74" viewBox="0 0 75 74"><defs><clipPath id="a"><rect width="75" height="74" fill="none"/></clipPath></defs><g opacity="0.765" clip-path="url(#a)"><g transform="translate(-418 -2645)"><circle cx="2.5" cy="2.5" r="2.5" transform="translate(418 2645)" fill="#ff6f08"/></g><g transform="translate(-402 -2645)"><circle cx="2.5" cy="2.5" r="2.5" transform="translate(418 2645)" fill="#ff6f08"/></g><g transform="translate(-386 -2645)"><circle cx="2.5" cy="2.5" r="2.5" transform="translate(418 2645)" fill="#ff6f08"/></g><g transform="translate(-370 -2645)"><circle cx="2.5" cy="2.5" r="2.5" transform="translate(418 2645)" fill="#ff6f08"/></g><g transform="translate(-354 -2645)"><circle cx="2.5" cy="2.5" r="2.5" transform="translate(418 2645)" fill="#ff6f08"/></g><g transform="translate(-418 -2629)"><circle cx="2.5" cy="2.5" r="2.5" transform="translate(418 2645)" fill="#ff6f08"/></g><g transform="translate(-402 -2629)"><circle cx="2.5" cy="2.5" r="2.5" transform="translate(418 2645)" fill="#ff6f08"/></g><g transform="translate(-386 -2629)"><circle cx="2.5" cy="2.5" r="2.5" transform="translate(418 2645)" fill="#ff6f08"/></g><g transform="translate(-370 -2629)"><circle cx="2.5" cy="2.5" r="2.5" transform="translate(418 2645)" fill="#ff6f08"/></g><g transform="translate(-354 -2629)"><circle cx="2.5" cy="2.5" r="2.5" transform="translate(418 2645)" fill="#ff6f08"/></g><g transform="translate(-418 -2613)"><circle cx="2.5" cy="2.5" r="2.5" transform="translate(418 2645)" fill="#ff6f08"/></g><g transform="translate(-402 -2613)"><circle cx="2.5" cy="2.5" r="2.5" transform="translate(418 2645)" fill="#ff6f08"/></g><g transform="translate(-386 -2613)"><circle cx="2.5" cy="2.5" r="2.5" transform="translate(418 2645)" fill="#ff6f08"/></g><g transform="translate(-370 -2613)"><circle cx="2.5" cy="2.5" r="2.5" transform="translate(418 2645)" fill="#ff6f08"/></g><g transform="translate(-354 -2613)"><circle cx="2.5" cy="2.5" r="2.5" transform="translate(418 2645)" fill="#ff6f08"/></g><g transform="translate(-418 -2597)"><circle cx="2.5" cy="2.5" r="2.5" transform="translate(418 2645)" fill="#ff6f08"/></g><g transform="translate(-402 -2597)"><circle cx="2.5" cy="2.5" r="2.5" transform="translate(418 2645)" fill="#ff6f08"/></g><g transform="translate(-386 -2597)"><circle cx="2.5" cy="2.5" r="2.5" transform="translate(418 2645)" fill="#ff6f08"/></g><g transform="translate(-370 -2597)"><circle cx="2.5" cy="2.5" r="2.5" transform="translate(418 2645)" fill="#ff6f08"/></g><g transform="translate(-354 -2597)"><circle cx="2.5" cy="2.5" r="2.5" transform="translate(418 2645)" fill="#ff6f08"/></g><g transform="translate(-418 -2581)"><circle cx="2.5" cy="2.5" r="2.5" transform="translate(418 2645)" fill="#ff6f08"/></g><g transform="translate(-402 -2581)"><circle cx="2.5" cy="2.5" r="2.5" transform="translate(418 2645)" fill="#ff6f08"/></g><g transform="translate(-386 -2581)"><circle cx="2.5" cy="2.5" r="2.5" transform="translate(418 2645)" fill="#ff6f08"/></g><g transform="translate(-370 -2581)"><circle cx="2.5" cy="2.5" r="2.5" transform="translate(418 2645)" fill="#ff6f08"/></g><g transform="translate(-354 -2581)"><circle cx="2.5" cy="2.5" r="2.5" transform="translate(418 2645)" fill="#ff6f08"/></g></g></svg>