<svg xmlns="http://www.w3.org/2000/svg" xmlns:xlink="http://www.w3.org/1999/xlink" width="119" height="107" viewBox="0 0 119 107"><defs><clipPath id="a"><rect width="119" height="107" fill="none"/></clipPath></defs><g opacity="0.524" clip-path="url(#a)"><g transform="translate(-418 -2645)"><circle cx="2.5" cy="2.5" r="2.5" transform="translate(418 2645)" fill="#38b566"/></g><g transform="translate(-402 -2645)"><circle cx="2.5" cy="2.5" r="2.5" transform="translate(418 2645)" fill="#38b566"/></g><g transform="translate(-386 -2645)"><circle cx="2.5" cy="2.5" r="2.5" transform="translate(418 2645)" fill="#38b566"/></g><g transform="translate(-370 -2645)"><circle cx="2.5" cy="2.5" r="2.5" transform="translate(418 2645)" fill="#38b566"/></g><g transform="translate(-354 -2645)"><circle cx="2.5" cy="2.5" r="2.5" transform="translate(418 2645)" fill="#38b566"/></g><g transform="translate(-338 -2645)"><circle cx="2.5" cy="2.5" r="2.5" transform="translate(418 2645)" fill="#38b566"/></g><g transform="translate(-322 -2645)"><circle cx="2.5" cy="2.5" r="2.5" transform="translate(418 2645)" fill="#38b566"/></g><g transform="translate(-306 -2645)"><circle cx="2.5" cy="2.5" r="2.5" transform="translate(418 2645)" fill="#38b566"/></g><g transform="translate(-418 -2629)"><circle cx="2.5" cy="2.5" r="2.5" transform="translate(418 2645)" fill="#38b566"/></g><g transform="translate(-402 -2629)"><circle cx="2.5" cy="2.5" r="2.5" transform="translate(418 2645)" fill="#38b566"/></g><g transform="translate(-386 -2629)"><circle cx="2.5" cy="2.5" r="2.5" transform="translate(418 2645)" fill="#38b566"/></g><g transform="translate(-370 -2629)"><circle cx="2.5" cy="2.5" r="2.5" transform="translate(418 2645)" fill="#38b566"/></g><g transform="translate(-354 -2629)"><circle cx="2.5" cy="2.5" r="2.5" transform="translate(418 2645)" fill="#38b566"/></g><g transform="translate(-338 -2629)"><circle cx="2.5" cy="2.5" r="2.5" transform="translate(418 2645)" fill="#38b566"/></g><g transform="translate(-322 -2629)"><circle cx="2.5" cy="2.5" r="2.5" transform="translate(418 2645)" fill="#38b566"/></g><g transform="translate(-306 -2629)"><circle cx="2.5" cy="2.5" r="2.5" transform="translate(418 2645)" fill="#38b566"/></g><g transform="translate(-418 -2613)"><circle cx="2.5" cy="2.5" r="2.5" transform="translate(418 2645)" fill="#38b566"/></g><g transform="translate(-402 -2613)"><circle cx="2.5" cy="2.5" r="2.5" transform="translate(418 2645)" fill="#38b566"/></g><g transform="translate(-386 -2613)"><circle cx="2.5" cy="2.5" r="2.5" transform="translate(418 2645)" fill="#38b566"/></g><g transform="translate(-370 -2613)"><circle cx="2.5" cy="2.5" r="2.5" transform="translate(418 2645)" fill="#38b566"/></g><g transform="translate(-354 -2613)"><circle cx="2.5" cy="2.5" r="2.5" transform="translate(418 2645)" fill="#38b566"/></g><g transform="translate(-338 -2613)"><circle cx="2.5" cy="2.5" r="2.5" transform="translate(418 2645)" fill="#38b566"/></g><g transform="translate(-322 -2613)"><circle cx="2.5" cy="2.5" r="2.5" transform="translate(418 2645)" fill="#38b566"/></g><g transform="translate(-306 -2613)"><circle cx="2.5" cy="2.5" r="2.5" transform="translate(418 2645)" fill="#38b566"/></g><g transform="translate(-418 -2597)"><circle cx="2.5" cy="2.5" r="2.5" transform="translate(418 2645)" fill="#38b566"/></g><g transform="translate(-402 -2597)"><circle cx="2.5" cy="2.5" r="2.5" transform="translate(418 2645)" fill="#38b566"/></g><g transform="translate(-386 -2597)"><circle cx="2.5" cy="2.5" r="2.5" transform="translate(418 2645)" fill="#38b566"/></g><g transform="translate(-370 -2597)"><circle cx="2.5" cy="2.5" r="2.5" transform="translate(418 2645)" fill="#38b566"/></g><g transform="translate(-354 -2597)"><circle cx="2.5" cy="2.5" r="2.5" transform="translate(418 2645)" fill="#38b566"/></g><g transform="translate(-338 -2597)"><circle cx="2.5" cy="2.5" r="2.5" transform="translate(418 2645)" fill="#38b566"/></g><g transform="translate(-322 -2597)"><circle cx="2.5" cy="2.5" r="2.5" transform="translate(418 2645)" fill="#38b566"/></g><g transform="translate(-306 -2597)"><circle cx="2.5" cy="2.5" r="2.5" transform="translate(418 2645)" fill="#38b566"/></g><g transform="translate(-418 -2581)"><circle cx="2.5" cy="2.5" r="2.5" transform="translate(418 2645)" fill="#38b566"/></g><g transform="translate(-402 -2581)"><circle cx="2.5" cy="2.5" r="2.5" transform="translate(418 2645)" fill="#38b566"/></g><g transform="translate(-386 -2581)"><circle cx="2.5" cy="2.5" r="2.5" transform="translate(418 2645)" fill="#38b566"/></g><g transform="translate(-370 -2581)"><circle cx="2.5" cy="2.5" r="2.5" transform="translate(418 2645)" fill="#38b566"/></g><g transform="translate(-354 -2581)"><circle cx="2.5" cy="2.5" r="2.5" transform="translate(418 2645)" fill="#38b566"/></g><g transform="translate(-338 -2581)"><circle cx="2.5" cy="2.5" r="2.5" transform="translate(418 2645)" fill="#38b566"/></g><g transform="translate(-322 -2581)"><circle cx="2.5" cy="2.5" r="2.5" transform="translate(418 2645)" fill="#38b566"/></g><g transform="translate(-306 -2581)"><circle cx="2.5" cy="2.5" r="2.5" transform="translate(418 2645)" fill="#38b566"/></g><g transform="translate(-418 -2565)"><circle cx="2.5" cy="2.5" r="2.5" transform="translate(418 2645)" fill="#38b566"/></g><g transform="translate(-402 -2565)"><circle cx="2.5" cy="2.5" r="2.5" transform="translate(418 2645)" fill="#38b566"/></g><g transform="translate(-386 -2565)"><circle cx="2.5" cy="2.5" r="2.5" transform="translate(418 2645)" fill="#38b566"/></g><g transform="translate(-370 -2565)"><circle cx="2.5" cy="2.5" r="2.5" transform="translate(418 2645)" fill="#38b566"/></g><g transform="translate(-354 -2565)"><circle cx="2.5" cy="2.5" r="2.5" transform="translate(418 2645)" fill="#38b566"/></g><g transform="translate(-338 -2565)"><circle cx="2.5" cy="2.5" r="2.5" transform="translate(418 2645)" fill="#38b566"/></g><g transform="translate(-322 -2565)"><circle cx="2.5" cy="2.5" r="2.5" transform="translate(418 2645)" fill="#38b566"/></g><g transform="translate(-306 -2565)"><circle cx="2.5" cy="2.5" r="2.5" transform="translate(418 2645)" fill="#38b566"/></g><g transform="translate(-418 -2549)"><circle cx="2.5" cy="2.5" r="2.5" transform="translate(418 2645)" fill="#38b566"/></g><g transform="translate(-402 -2549)"><circle cx="2.5" cy="2.5" r="2.5" transform="translate(418 2645)" fill="#38b566"/></g><g transform="translate(-386 -2549)"><circle cx="2.5" cy="2.5" r="2.5" transform="translate(418 2645)" fill="#38b566"/></g><g transform="translate(-370 -2549)"><circle cx="2.5" cy="2.5" r="2.5" transform="translate(418 2645)" fill="#38b566"/></g><g transform="translate(-354 -2549)"><circle cx="2.5" cy="2.5" r="2.5" transform="translate(418 2645)" fill="#38b566"/></g><g transform="translate(-338 -2549)"><circle cx="2.5" cy="2.5" r="2.5" transform="translate(418 2645)" fill="#38b566"/></g><g transform="translate(-322 -2549)"><circle cx="2.5" cy="2.5" r="2.5" transform="translate(418 2645)" fill="#38b566"/></g><g transform="translate(-306 -2549)"><circle cx="2.5" cy="2.5" r="2.5" transform="translate(418 2645)" fill="#38b566"/></g></g></svg>