<svg height="512" viewBox="0 0 60 60" width="512" xmlns="http://www.w3.org/2000/svg"><g id="Page-1" fill="none" fill-rule="evenodd"><g id="017---Headphones-Discount" fill="rgb(0,0,0)" fill-rule="nonzero" transform="translate(0 -1)"><path id="Shape" d="m34.5 3.346-1.151-1.046c-1.8954779-1.73728974-4.8045221-1.73728974-6.7 0l-1.149 1.046c-8.4729967 1.28044675-15.99303295 6.12555713-20.66099811 13.3117465-4.66796517 7.1861895-6.03759457 16.0264471-3.76300189 24.2882535-1.15326349 1.8430136-1.38246082 4.117982-.62 6.154l3.52 9.36c1.36083449 3.6180305 5.39671918 5.4481688 9.015 4.088l2.979-1.12c.5627632.6808477 1.4006815 1.0741263 2.284 1.072.361077-.0001994.7191523-.0655812 1.057-.193l3.744-1.407c1.5504202-.5836162 2.3343144-2.3134663 1.751-3.864l-7.741-20.589c-.2798629-.7451518-.8443841-1.3485383-1.5692816-1.677321-.7248974-.3287827-1.5507414-.3560069-2.2957184-.075679l-3.743 1.406c-1.19213452.4405773-1.97032814 1.5925775-1.934 2.863l-1.132.426c-.25849133-1.3176822-.38942957-2.6572038-.391-4 .14093455-8.5784404 5.1980771-16.3127563 13-19.882v20.45c-.0088629 2.7720647 2.227961 5.0281253 5 5.043h12c2.772039-.0148747 5.0088629-2.2709353 5-5.043v-20.45c7.802245 3.5693987 12.8594478 11.3041959 13 19.883-.0007547 1.342885-.1320386 2.6825172-.392 4l-1.131-.425c.0371992-1.2711483-.7411522-2.424187-1.934-2.865l-3.743-1.406c-1.5508086-.5824502-3.280186.2023281-3.863 1.753l-7.745 20.593c-.3058062.8243391-.2326325 1.7415711.2 2.507.0248169.0534679.0542624.104663.088.153.3439981.549021.8581409.9704495 1.464 1.2l3.743 1.408c.3382267.1273046.6966088.1926805 1.058.193h.049.013c.7835874-.0118964 1.5300694-.3358278 2.074-.9.081-.042.159-.088.239-.131l2.883 1.084c3.6182808 1.3601688 7.6541655-.4699695 9.015-4.088l3.521-9.36c.7648712-2.0414254.5333647-4.3228367-.626-6.169.7185423-2.5845539 1.0841904-5.254424 1.087-7.937-.0484356-14.8115041-10.8628411-27.3875975-25.5-29.654zm-22.212 55.332c-2.58482275.9679141-5.46550224-.3380297-6.441-2.92l-3.519-9.358c-.96844418-2.5845735.337754-5.4653668 2.92-6.44l2.809-1.06 4.673 12.431 2.37 6.292zm-2.688-22.178c.10796705-.2423729.30915065-.4309375.558-.523l3.742-1.411c.1129218-.0421652.2324628-.0638384.353-.064.4167554.0001565.7897189.2587604.936.649l7.742 20.592c.1945061.5166567-.0664569 1.0931924-.583 1.288l-3.746 1.408c-.5169314.193642-1.0929946-.0682049-1.287-.585l-7.739-20.592c-.09426668-.2469818-.08562234-.5214399.024-.762zm-5.6-3.11c.00393447 1.5830341.17149154 3.1614217.5 4.71-.65517699.2508187-1.26875203.5990731-1.82 1.033-3.27426952-14.5854153 5.48602081-29.17063843 19.9-33.132l-1.924 1.75c-.9973511.91700852-1.5849368 2.19593501-1.631 3.55-9.146 4.009-15.025 12.599-15.025 22.089zm32 3.61h-12c-1.6679329-.0137552-3.0099819-1.3750403-3-3.043v-22.457c.0001102-.8620054.3630855-1.68414444 1-2.265l6-5.458c1.1337984-1.03752856 2.8722016-1.03752856 4.006 0l6 5.458c.6346952.5819197.9954298 1.4039155.994 2.265v22.457c.0099819 1.6679597-1.3320671 3.0292448-3 3.043zm1.648 20.031c-.5169385-.1944042-.7784042-.7710615-.584-1.288l7.744-20.593c.1944042-.5169385.7710615-.7784042 1.288-.584l3.744 1.409c.5163997.1944088.7777438.7703505.584 1.287l-5.524 14.685-.005.011-2.217 5.9c-.0293359.0605062-.0648587.1178118-.106.171-.31.154-.629.306-.948.452-.0789035-.0040383-.1570822-.017124-.233-.039zm20.025-10.631-3.52 9.36c-.9754978 2.5819703-3.8561772 3.8879141-6.441 2.92l-2.812-1.057 1.84-4.883.011-.029 5.192-13.811 2.025.762c.037244.020529.0756411.0388929.115.055.016 0 .032 0 .049.006l.62.233c2.5843873.9746496 3.8913846 3.8580083 2.921 6.444zm-.358-7.264c-.5495897-.4344477-1.1614442-.7836936-1.815-1.036.3302217-1.5483059.4977978-3.1268725.5-4.71 0-9.487-5.879-18.08-15.02-22.084-.0460632-1.35406499-.6336489-2.63299148-1.631-3.55l-1.924-1.75c12.1260873 3.38018529 20.5297961 14.4056878 20.575 26.994-.0002095 2.0637394-.2299552 4.1210533-.685 6.134z"/><circle id="Oval" cx="30" cy="5.619" r="1"/><path id="Shape" d="m29 18c0-1.6568542-1.3431458-3-3-3s-3 1.3431458-3 3 1.3431458 3 3 3 3-1.3431458 3-3zm-4 0c0-.5522847.4477153-1 1-1s1 .4477153 1 1-.4477153 1-1 1-1-.4477153-1-1z"/><path id="Shape" d="m34 24c-1.6568542 0-3 1.3431458-3 3s1.3431458 3 3 3 3-1.3431458 3-3-1.3431458-3-3-3zm0 4c-.5522847 0-1-.4477153-1-1s.4477153-1 1-1 1 .4477153 1 1-.4477153 1-1 1z"/><path id="Shape" d="m35.673 16.26c-.1962289-.1785571-.455371-.2718173-.7203813-.2592514-.2650104.012566-.5141654.1299281-.6926187.3262514l-10 11c-.2404397.2643765-.321572.6369436-.2128351.9773588s.3908233.5969613.74.673.7123954-.0399823.9528351-.3043588l10-11c.1785571-.1962289.2718173-.455371.2592514-.7203813-.012566-.2650104-.1299281-.5141654-.3262514-.6926187z"/></g></g></svg>